<?xml version="1.0" standalone="no"?>
<!DOCTYPE svg PUBLIC "-//W3C//DTD SVG 20010904//EN"
 "http://www.w3.org/TR/2001/REC-SVG-20010904/DTD/svg10.dtd">
<svg version="1.0" xmlns="http://www.w3.org/2000/svg"
 width="400.000000pt" height="400.000000pt" viewBox="0 0 400.000000 400.000000"
 preserveAspectRatio="xMidYMid meet">
<metadata>
Created by potrace 1.11, written by Peter Selinger 2001-2013
</metadata>
<g transform="translate(0.000000,400.000000) scale(0.100000,-0.100000)"
fill="#000000" stroke="none">
<path d="M1132 3787 c-6 -7 -18 -44 -27 -82 -9 -39 -19 -83 -24 -100 -9 -37
11 -185 34 -245 9 -25 17 -50 17 -57 1 -7 27 -50 59 -96 l57 -85 -51 -43 c-28
-24 -62 -53 -76 -65 l-25 -21 -38 58 c-50 75 -117 132 -203 174 -98 47 -121
50 -132 17 -14 -44 -3 -164 18 -204 5 -10 7 -18 4 -18 -3 0 0 -10 7 -22 7 -13
11 -26 10 -30 -1 -5 2 -8 7 -8 5 0 13 -10 17 -22 4 -13 35 -51 69 -85 l63 -63
-37 -52 c-20 -29 -48 -73 -62 -98 -13 -25 -27 -47 -31 -50 -3 -3 -10 -18 -13
-33 -4 -15 -10 -27 -14 -25 -3 2 -33 16 -66 32 -33 16 -72 29 -88 31 -15 1
-30 5 -34 9 -3 3 -22 6 -41 6 l-35 0 7 -42 c10 -68 61 -160 116 -212 47 -44
58 -64 43 -79 -3 -4 -8 -19 -9 -33 -2 -15 -6 -34 -10 -43 -6 -15 -9 -30 -18
-86 -2 -11 -4 -34 -5 -52 l-1 -32 -83 6 c-60 4 -100 1 -147 -11 -78 -20 -170
-61 -170 -75 0 -6 9 -20 20 -31 27 -27 127 -91 149 -95 9 -2 16 -4 16 -5 0 -1
7 -3 15 -5 8 -2 29 -6 45 -10 17 -3 51 -8 77 -10 63 -4 69 -10 67 -58 -1 -23
4 -77 10 -119 7 -43 14 -88 15 -100 2 -13 6 -30 9 -38 5 -13 20 -69 30 -117 2
-7 6 -16 10 -19 4 -4 7 -13 7 -19 0 -7 7 -29 15 -49 8 -20 16 -39 17 -43 9
-37 147 -287 167 -303 3 -3 17 -21 30 -40 36 -52 39 -56 153 -170 113 -114
124 -124 213 -186 84 -58 210 -127 308 -167 36 -15 37 -17 25 -44 -7 -15 -25
-50 -40 -76 -16 -26 -28 -52 -28 -58 0 -6 46 -9 122 -7 134 3 126 -2 130 76 1
18 5 35 10 38 11 7 13 -29 6 -91 -3 -18 4 -20 53 -23 60 -3 68 5 69 64 0 20 5
22 48 19 26 -2 47 -4 47 -5 0 -6 297 -5 300 1 3 3 23 5 45 4 22 -1 43 2 46 6
2 4 15 6 29 3 13 -2 27 0 30 6 4 6 10 8 15 5 5 -3 21 0 36 5 14 6 43 13 62 16
19 3 47 11 61 16 14 6 32 12 40 14 61 12 241 100 351 172 199 129 344 274 474
474 62 95 148 267 140 280 -3 4 -1 8 3 8 7 0 40 90 48 130 1 3 5 16 10 30 4
14 9 36 11 50 1 14 3 25 4 25 4 0 19 94 23 142 2 18 6 35 10 39 10 10 9 304
-2 304 -4 0 -8 17 -8 38 -1 36 -7 81 -18 132 -3 14 -8 36 -11 50 -3 14 -8 34
-11 45 -4 11 -8 23 -9 28 -1 4 -3 9 -4 12 -1 3 -3 8 -4 13 -19 72 -39 120 -98
240 -38 78 -74 142 -79 142 -5 0 -9 5 -9 11 0 11 -91 135 -137 185 -90 99 -90
99 -213 205 -34 29 -170 119 -170 113 0 -3 -7 2 -16 10 -8 9 -21 16 -29 16 -7
0 -15 5 -17 11 -2 5 -10 11 -18 13 -8 2 -45 17 -81 34 -36 17 -97 41 -135 53
-38 12 -73 24 -79 27 -5 3 -18 7 -30 8 -11 2 -53 10 -92 18 -150 32 -421 43
-503 20 -13 -3 -15 11 -15 84 -1 81 -13 148 -34 181 -17 27 -133 -61 -229
-174 -7 -8 -13 -17 -13 -20 0 -2 -9 -25 -20 -49 -10 -24 -22 -58 -25 -75 -4
-16 -9 -30 -13 -29 -3 1 -24 -6 -46 -16 -67 -30 -85 -30 -85 -2 0 37 -43 148
-81 212 -43 71 -134 163 -213 214 -34 21 -66 43 -73 49 -8 7 -14 6 -21 -2z
m832 -411 c-28 -95 -115 -209 -202 -264 -57 -37 -73 -42 -78 -22 -2 8 -8 33
-14 55 -15 53 -18 165 -5 181 9 12 160 56 239 70 17 3 32 7 34 9 12 12 32 -10
26 -29z m359 -68 c-6 -121 -76 -224 -189 -279 -35 -18 -68 -29 -72 -25 -4 4
-6 32 -5 62 4 109 79 218 183 266 85 38 87 37 83 -24z m-800 -108 c-1 -36 -5
-81 -8 -100 -7 -40 -35 -130 -40 -130 -14 0 -128 75 -168 110 l-47 42 72 47
c40 26 91 56 113 66 22 11 42 24 44 28 1 4 10 7 19 5 14 -3 17 -15 15 -68z
m1050 -74 c22 -158 -84 -358 -236 -445 -46 -26 -165 -75 -168 -68 -11 28 -17
137 -8 143 4 2 7 15 7 29 0 36 40 133 78 185 34 47 78 91 131 128 42 30 164
81 179 75 6 -2 14 -24 17 -47z m-646 -173 c33 -60 53 -141 53 -217 0 -126 -40
-222 -132 -320 -58 -62 -63 -65 -80 -49 -10 9 -18 22 -18 30 0 7 -5 13 -12 13
-6 0 -9 3 -5 6 3 4 -1 20 -10 37 -18 36 -23 70 -24 162 -1 83 11 134 48 206
30 57 127 169 147 169 7 0 22 -17 33 -37z m-810 -48 c11 -55 11 -170 1 -182
-8 -10 -15 -10 -32 -1 -11 6 -21 10 -21 9 0 -8 -109 42 -128 59 -10 9 11 36
98 128 65 69 67 69 82 -13z m284 -57 c113 -114 142 -314 65 -442 l-23 -39 -51
52 c-50 51 -106 146 -96 162 3 5 1 9 -3 9 -14 0 -20 108 -10 166 9 48 49 134
63 134 7 0 32 -19 55 -42z m1673 -79 c4 -3 -3 -35 -14 -71 -34 -112 -122 -227
-228 -300 -44 -31 -112 -63 -124 -60 -5 1 -8 -3 -8 -10 0 -6 -3 -8 -6 -5 -4 3
-14 2 -24 -3 -16 -9 -42 -14 -120 -27 -43 -7 -133 -11 -141 -6 -11 5 10 85 40
148 63 137 231 279 366 311 44 11 50 13 50 14 0 1 12 3 28 4 15 2 29 5 32 7 6
7 142 5 149 -2z m-2251 -304 c41 -44 73 -103 87 -162 12 -53 7 -79 -12 -67 -6
4 -21 8 -32 9 -42 3 -92 18 -139 42 -51 25 -51 26 -24 93 5 14 11 30 12 35 2
6 12 32 24 59 25 53 26 52 84 -9z m287 -2 c43 -28 80 -66 106 -111 32 -53 36
-70 39 -159 2 -83 0 -85 -70 -52 -121 57 -199 198 -180 325 l6 44 37 -16 c20
-8 48 -22 62 -31z m1186 -23 c0 -25 -4 -56 -9 -70 -5 -14 -10 -33 -12 -43 -7
-34 -69 -107 -119 -141 -53 -36 -123 -63 -134 -52 -3 4 -5 32 -4 62 3 106 72
209 179 265 78 41 97 37 99 -21z m-394 -251 c-2 -72 -21 -117 -75 -173 -46
-49 -77 -59 -77 -27 0 11 -4 22 -8 25 -4 2 -7 31 -7 63 1 76 30 137 90 193
l49 44 15 -34 c8 -19 13 -60 13 -91z m-422 31 c54 -55 72 -93 78 -166 5 -61
-11 -134 -29 -134 -25 0 -100 85 -119 136 -21 58 -27 129 -10 139 6 4 8 10 5
15 -7 12 12 50 26 50 5 0 28 -18 49 -40z m925 -162 c-13 -57 -72 -135 -137
-178 -33 -22 -67 -40 -74 -40 -23 0 -29 -1 -39 -10 -6 -5 -20 -7 -30 -6 -11 2
-24 1 -30 -3 -20 -12 -75 -8 -75 6 0 29 51 121 87 156 60 61 166 103 266 106
38 1 39 1 32 -31z m489 -57 c33 -12 82 -35 109 -53 l50 -32 -24 -19 c-39 -31
-102 -66 -131 -71 -15 -2 -33 -8 -39 -12 -14 -9 -160 -13 -174 -6 -5 4 -24 7
-41 9 -38 3 -128 41 -178 76 l-37 24 33 25 c115 87 286 111 432 59z m-2222 2
c82 -32 175 -103 162 -124 -9 -16 -109 -58 -147 -63 -18 -3 -32 -6 -32 -7 0
-1 -10 -3 -22 -4 -19 -2 -23 3 -24 29 -2 61 9 186 17 186 2 0 23 -8 46 -17z
m531 -71 c24 -11 59 -33 77 -48 35 -31 90 -110 90 -130 0 -17 -145 -11 -206
10 -59 19 -143 91 -174 149 -11 21 -20 39 -20 42 0 8 85 10 136 4 28 -4 72
-16 97 -27z m541 -149 c-8 -27 -17 -59 -19 -73 -3 -14 -8 -38 -11 -55 -13 -65
-15 -95 -16 -220 -1 -119 4 -175 18 -197 3 -4 2 -8 -3 -8 -8 0 -18 20 -52 108
-28 70 -34 105 -32 182 3 104 5 118 39 190 22 45 73 120 83 120 4 0 1 -21 -7
-47z m-104 -83 c-38 -75 -51 -185 -32 -269 6 -25 9 -49 6 -53 -3 -4 -2 -8 3
-8 4 0 19 -30 33 -66 16 -42 44 -89 80 -130 116 -137 141 -171 169 -229 30
-63 55 -136 67 -195 15 -75 2 -340 -21 -446 -5 -22 -22 -24 -80 -10 -11 2 -23
5 -26 5 -4 1 -7 34 -7 74 -1 88 -12 185 -28 247 -3 14 -8 40 -11 58 -3 17 -9
32 -15 32 -5 0 -8 6 -7 13 1 6 -1 20 -4 30 -4 9 -10 25 -14 35 -3 9 -5 20 -5
25 1 4 -3 7 -9 7 -5 0 -8 3 -5 8 2 4 -16 46 -41 92 -25 47 -63 119 -83 160
-105 207 -102 413 10 608 36 61 50 70 20 12z m-481 -77 c47 -16 75 -33 53 -33
-7 0 -12 -6 -12 -13 0 -22 -82 -94 -140 -123 -75 -38 -203 -44 -284 -13 l-55
20 19 22 c72 84 105 109 178 137 58 23 177 24 241 3z m215 -32 c28 -14 72 -46
98 -71 l48 -45 -6 -52 -7 -52 -34 57 c-38 63 -97 129 -158 174 -31 24 -35 29
-15 23 14 -4 47 -19 74 -34z m959 0 c146 -38 274 -125 357 -242 27 -40 48 -74
46 -76 -15 -15 -155 -21 -221 -9 -37 6 -70 14 -70 16 0 1 -11 3 -24 6 -90 17
-274 159 -330 257 -36 62 -35 63 84 66 53 1 107 -5 158 -18z m-328 -343 c-11
-65 -41 -139 -76 -186 -17 -23 -34 -42 -37 -42 -4 0 -15 12 -25 25 -18 25 -18
26 12 51 41 34 95 111 112 157 17 49 22 47 14 -5z m-271 -478 c3 -14 8 -36 12
-50 3 -14 7 -33 7 -42 1 -10 4 -18 7 -18 3 0 6 -8 6 -17 1 -10 4 -36 8 -58 5
-22 9 -56 11 -75 2 -19 4 -37 5 -40 4 -10 3 -151 -2 -155 -6 -6 -136 34 -142
44 -3 4 2 20 10 36 8 15 12 30 9 33 -3 3 0 10 5 17 5 6 12 22 14 36 3 13 5 24
7 24 1 0 3 9 4 20 2 11 6 34 10 50 4 17 8 71 10 120 1 50 3 94 4 99 2 15 9 3
15 -24z"/>
<path d="M380 3026 c0 -14 5 -28 10 -31 6 -4 8 -10 5 -15 -11 -17 49 -122 95
-168 64 -63 133 -99 227 -116 30 -6 31 -5 28 27 -14 132 -123 257 -267 306
-82 28 -98 27 -98 -3z"/>
<path d="M339 2356 c-2 -2 -26 -6 -54 -9 -27 -3 -57 -8 -65 -11 -8 -3 -28 -10
-43 -16 l-28 -10 33 -35 c35 -39 123 -97 132 -88 3 4 6 2 6 -3 0 -5 10 -11 23
-12 39 -4 181 -3 197 1 34 9 70 27 70 35 0 13 -66 77 -96 92 -16 8 -32 19 -36
25 -4 5 -8 7 -8 3 0 -3 -20 0 -45 8 -25 7 -45 11 -45 8 0 -3 -8 0 -19 5 -10 6
-20 9 -22 7z"/>
</g>
</svg>
